<svg id="visual" viewBox="0 0 900 600" width="900" height="600" xmlns="http://www.w3.org/2000/svg" xmlns:xlink="http://www.w3.org/1999/xlink" version="1.1"><g stroke-width="1" stroke-linejoin="bevel"><path d="M405 277L374 212L323 290Z" fill="#37214a" stroke="#37214a"></path><path d="M374 212L270 200L323 290Z" fill="#4d204f" stroke="#4d204f"></path><path d="M201 299L337 392L323 290Z" fill="#00101c" stroke="#00101c"></path><path d="M323 290L337 392L405 277Z" fill="#8b1843" stroke="#8b1843"></path><path d="M337 392L398 400L405 277Z" fill="#121c37" stroke="#121c37"></path><path d="M521 306L490 171L405 277Z" fill="#37214a" stroke="#37214a"></path><path d="M405 277L490 171L374 212Z" fill="#121c37" stroke="#121c37"></path><path d="M374 212L289 85L270 200Z" fill="#231f42" stroke="#231f42"></path><path d="M270 200L201 299L323 290Z" fill="#231f42" stroke="#231f42"></path><path d="M483 391L521 306L405 277Z" fill="#37214a" stroke="#37214a"></path><path d="M490 171L413 92L374 212Z" fill="#8b1843" stroke="#8b1843"></path><path d="M398 400L483 391L405 277Z" fill="#8b1843" stroke="#8b1843"></path><path d="M413 92L289 85L374 212Z" fill="#37214a" stroke="#37214a"></path><path d="M270 200L167 202L201 299Z" fill="#8b1843" stroke="#8b1843"></path><path d="M172 108L167 202L270 200Z" fill="#9b1d38" stroke="#9b1d38"></path><path d="M201 299L194 419L337 392Z" fill="#121c37" stroke="#121c37"></path><path d="M337 392L392 490L398 400Z" fill="#631d4f" stroke="#631d4f"></path><path d="M125 366L194 419L201 299Z" fill="#9b1d38" stroke="#9b1d38"></path><path d="M312 532L392 490L337 392Z" fill="#4d204f" stroke="#4d204f"></path><path d="M398 400L392 490L483 391Z" fill="#231f42" stroke="#231f42"></path><path d="M574 382L521 306L483 391Z" fill="#121c37" stroke="#121c37"></path><path d="M574 382L591 309L521 306Z" fill="#781a4b" stroke="#781a4b"></path><path d="M521 306L628 177L490 171Z" fill="#781a4b" stroke="#781a4b"></path><path d="M289 85L172 108L270 200Z" fill="#781a4b" stroke="#781a4b"></path><path d="M172 108L129 186L167 202Z" fill="#121c37" stroke="#121c37"></path><path d="M167 202L98 320L201 299Z" fill="#631d4f" stroke="#631d4f"></path><path d="M628 177L533 83L490 171Z" fill="#4d204f" stroke="#4d204f"></path><path d="M490 171L533 83L413 92Z" fill="#37214a" stroke="#37214a"></path><path d="M413 92L430 0L289 85Z" fill="#071729" stroke="#071729"></path><path d="M620 465L574 382L483 391Z" fill="#00101c" stroke="#00101c"></path><path d="M98 320L125 366L201 299Z" fill="#631d4f" stroke="#631d4f"></path><path d="M533 83L430 0L413 92Z" fill="#00101c" stroke="#00101c"></path><path d="M289 85L239 0L172 108Z" fill="#8b1843" stroke="#8b1843"></path><path d="M129 186L98 320L167 202Z" fill="#4d204f" stroke="#4d204f"></path><path d="M430 0L269 0L289 85Z" fill="#37214a" stroke="#37214a"></path><path d="M179 508L312 532L194 419Z" fill="#631d4f" stroke="#631d4f"></path><path d="M194 419L312 532L337 392Z" fill="#781a4b" stroke="#781a4b"></path><path d="M591 309L628 177L521 306Z" fill="#231f42" stroke="#231f42"></path><path d="M685 172L628 177L591 309Z" fill="#781a4b" stroke="#781a4b"></path><path d="M269 0L239 0L289 85Z" fill="#231f42" stroke="#231f42"></path><path d="M411 600L476 533L392 490Z" fill="#37214a" stroke="#37214a"></path><path d="M392 490L476 533L483 391Z" fill="#00101c" stroke="#00101c"></path><path d="M597 0L512 0L533 83Z" fill="#121c37" stroke="#121c37"></path><path d="M533 83L512 0L430 0Z" fill="#781a4b" stroke="#781a4b"></path><path d="M172 108L108 86L129 186Z" fill="#781a4b" stroke="#781a4b"></path><path d="M0 212L0 277L98 320Z" fill="#8b1843" stroke="#8b1843"></path><path d="M239 0L108 86L172 108Z" fill="#00101c" stroke="#00101c"></path><path d="M118 466L179 508L194 419Z" fill="#781a4b" stroke="#781a4b"></path><path d="M118 466L194 419L125 366Z" fill="#781a4b" stroke="#781a4b"></path><path d="M628 177L615 69L533 83Z" fill="#781a4b" stroke="#781a4b"></path><path d="M0 374L118 466L125 366Z" fill="#9b1d38" stroke="#9b1d38"></path><path d="M476 533L620 465L483 391Z" fill="#00101c" stroke="#00101c"></path><path d="M574 382L719 330L591 309Z" fill="#781a4b" stroke="#781a4b"></path><path d="M719 330L685 172L591 309Z" fill="#071729" stroke="#071729"></path><path d="M628 177L685 172L615 69Z" fill="#4d204f" stroke="#4d204f"></path><path d="M312 532L339 600L392 490Z" fill="#4d204f" stroke="#4d204f"></path><path d="M476 533L630 600L620 465Z" fill="#781a4b" stroke="#781a4b"></path><path d="M191 600L339 600L312 532Z" fill="#9b1d38" stroke="#9b1d38"></path><path d="M339 600L411 600L392 490Z" fill="#9b1d38" stroke="#9b1d38"></path><path d="M665 0L597 0L615 69Z" fill="#37214a" stroke="#37214a"></path><path d="M615 69L597 0L533 83Z" fill="#00101c" stroke="#00101c"></path><path d="M411 600L474 600L476 533Z" fill="#37214a" stroke="#37214a"></path><path d="M0 212L98 320L129 186Z" fill="#a62929" stroke="#a62929"></path><path d="M98 320L0 374L125 366Z" fill="#071729" stroke="#071729"></path><path d="M0 132L0 212L129 186Z" fill="#8b1843" stroke="#8b1843"></path><path d="M706 436L719 330L574 382Z" fill="#37214a" stroke="#37214a"></path><path d="M0 277L0 374L98 320Z" fill="#781a4b" stroke="#781a4b"></path><path d="M239 0L84 0L108 86Z" fill="#a62929" stroke="#a62929"></path><path d="M108 86L0 132L129 186Z" fill="#781a4b" stroke="#781a4b"></path><path d="M101 600L191 600L179 508Z" fill="#37214a" stroke="#37214a"></path><path d="M179 508L191 600L312 532Z" fill="#8b1843" stroke="#8b1843"></path><path d="M101 600L179 508L118 466Z" fill="#a62929" stroke="#a62929"></path><path d="M0 0L0 132L108 86Z" fill="#781a4b" stroke="#781a4b"></path><path d="M704 494L706 436L620 465Z" fill="#9b1d38" stroke="#9b1d38"></path><path d="M620 465L706 436L574 382Z" fill="#4d204f" stroke="#4d204f"></path><path d="M720 67L665 0L615 69Z" fill="#00101c" stroke="#00101c"></path><path d="M720 67L615 69L685 172Z" fill="#4d204f" stroke="#4d204f"></path><path d="M760 80L720 67L685 172Z" fill="#4d204f" stroke="#4d204f"></path><path d="M819 361L767 306L719 330Z" fill="#37214a" stroke="#37214a"></path><path d="M719 330L767 306L685 172Z" fill="#a62929" stroke="#a62929"></path><path d="M630 600L704 494L620 465Z" fill="#121c37" stroke="#121c37"></path><path d="M706 436L819 361L719 330Z" fill="#4d204f" stroke="#4d204f"></path><path d="M0 530L101 600L118 466Z" fill="#a62929" stroke="#a62929"></path><path d="M767 306L783 162L685 172Z" fill="#8b1843" stroke="#8b1843"></path><path d="M474 600L630 600L476 533Z" fill="#631d4f" stroke="#631d4f"></path><path d="M783 162L760 80L685 172Z" fill="#631d4f" stroke="#631d4f"></path><path d="M720 67L808 0L665 0Z" fill="#9b1d38" stroke="#9b1d38"></path><path d="M84 0L0 0L108 86Z" fill="#9b1d38" stroke="#9b1d38"></path><path d="M0 374L0 530L118 466Z" fill="#631d4f" stroke="#631d4f"></path><path d="M767 306L900 216L783 162Z" fill="#00101c" stroke="#00101c"></path><path d="M792 529L819 361L706 436Z" fill="#00101c" stroke="#00101c"></path><path d="M792 529L706 436L704 494Z" fill="#781a4b" stroke="#781a4b"></path><path d="M0 530L0 600L101 600Z" fill="#231f42" stroke="#231f42"></path><path d="M630 600L721 600L704 494Z" fill="#37214a" stroke="#37214a"></path><path d="M721 600L792 529L704 494Z" fill="#9b1d38" stroke="#9b1d38"></path><path d="M900 75L808 0L760 80Z" fill="#00101c" stroke="#00101c"></path><path d="M760 80L808 0L720 67Z" fill="#00101c" stroke="#00101c"></path><path d="M900 75L760 80L783 162Z" fill="#00101c" stroke="#00101c"></path><path d="M900 385L900 291L819 361Z" fill="#231f42" stroke="#231f42"></path><path d="M819 361L900 291L767 306Z" fill="#9b1d38" stroke="#9b1d38"></path><path d="M900 291L900 216L767 306Z" fill="#781a4b" stroke="#781a4b"></path><path d="M900 511L900 385L819 361Z" fill="#8b1843" stroke="#8b1843"></path><path d="M721 600L816 600L792 529Z" fill="#781a4b" stroke="#781a4b"></path><path d="M792 529L900 511L819 361Z" fill="#121c37" stroke="#121c37"></path><path d="M900 216L900 75L783 162Z" fill="#781a4b" stroke="#781a4b"></path><path d="M816 600L900 511L792 529Z" fill="#00101c" stroke="#00101c"></path><path d="M900 75L900 0L808 0Z" fill="#121c37" stroke="#121c37"></path><path d="M816 600L900 600L900 511Z" fill="#9b1d38" stroke="#9b1d38"></path></g></svg>